M48
; DRILL file {KiCad 9.0.0} date 2025-03-27T13:15:29+0530
; FORMAT={-:-/ absolute / inch / decimal}
; #@! TF.CreationDate,2025-03-27T13:15:29+05:30
; #@! TF.GenerationSoftware,Kicad,Pcbnew,9.0.0
; #@! TF.FileFunction,Plated,1,2,PTH
FMAT,2
INCH
; #@! TA.AperFunction,Plated,PTH,ViaDrill
T1C0.0118
; #@! TA.AperFunction,Plated,PTH,ComponentDrill
T2C0.0197
; #@! TA.AperFunction,Plated,PTH,ComponentDrill
T3C0.0295
; #@! TA.AperFunction,Plated,PTH,ComponentDrill
T4C0.0315
; #@! TA.AperFunction,Plated,PTH,ComponentDrill
T5C0.0394
; #@! TA.AperFunction,Plated,PTH,ComponentDrill
T6C0.0433
; #@! TA.AperFunction,Plated,PTH,ComponentDrill
T7C0.0512
%
G90
G05
T1
X3.0205Y-3.9695
X3.2295Y-3.0497
X3.503Y-3.5267
X3.5602Y-3.6654
X3.6417Y-3.9381
X3.766Y-3.5695
X4.0354Y-3.5236
X4.0734Y-3.4182
X4.0747Y-3.4691
X4.1398Y-3.5857
X4.3071Y-3.7907
T2
X3.9679Y-2.9915
X4.0427Y-2.9915
T3
X3.9567Y-2.7559
X4.0067Y-2.7559
X4.0567Y-2.7559
T4
X4.5866Y-3.3055
X4.5866Y-3.4055
X4.5866Y-3.5055
X4.5866Y-3.6055
T5
X3.0205Y-2.6969
X3.0205Y-2.9969
X3.1398Y-4.0354
X3.2205Y-2.6969
X3.2205Y-2.9969
X3.435Y-4.0354
X3.7205Y-2.6969
X3.7205Y-2.9969
X4.3071Y-2.8543
X4.6063Y-2.8543
T6
X3.5417Y-3.2852
X3.6417Y-3.2852
X3.7417Y-3.2852
T7
X3.8976Y-3.9961
X4.0945Y-3.9961
X4.4291Y-4.0157
X4.626Y-4.0157
M30
