%TF.GenerationSoftware,KiCad,Pcbnew,9.0.0*%
%TF.CreationDate,2025-03-27T13:05:49+05:30*%
%TF.ProjectId,incubator,696e6375-6261-4746-9f72-2e6b69636164,rev?*%
%TF.SameCoordinates,Original*%
%TF.FileFunction,Copper,L1,Top*%
%TF.FilePolarity,Positive*%
%FSLAX46Y46*%
G04 Gerber Fmt 4.6, Leading zero omitted, Abs format (unit mm)*
G04 Created by KiCad (PCBNEW 9.0.0) date 2025-03-27 13:05:49*
%MOMM*%
%LPD*%
G01*
G04 APERTURE LIST*
G04 Aperture macros list*
%AMRoundRect*
0 Rectangle with rounded corners*
0 $1 Rounding radius*
0 $2 $3 $4 $5 $6 $7 $8 $9 X,Y pos of 4 corners*
0 Add a 4 corners polygon primitive as box body*
4,1,4,$2,$3,$4,$5,$6,$7,$8,$9,$2,$3,0*
0 Add four circle primitives for the rounded corners*
1,1,$1+$1,$2,$3*
1,1,$1+$1,$4,$5*
1,1,$1+$1,$6,$7*
1,1,$1+$1,$8,$9*
0 Add four rect primitives between the rounded corners*
20,1,$1+$1,$2,$3,$4,$5,0*
20,1,$1+$1,$4,$5,$6,$7,0*
20,1,$1+$1,$6,$7,$8,$9,0*
20,1,$1+$1,$8,$9,$2,$3,0*%
G04 Aperture macros list end*
%TA.AperFunction,ComponentPad*%
%ADD10RoundRect,0.250001X-1.149999X-1.149999X1.149999X-1.149999X1.149999X1.149999X-1.149999X1.149999X0*%
%TD*%
%TA.AperFunction,ComponentPad*%
%ADD11C,2.800000*%
%TD*%
%TA.AperFunction,SMDPad,CuDef*%
%ADD12R,1.600000X0.550000*%
%TD*%
%TA.AperFunction,SMDPad,CuDef*%
%ADD13R,0.550000X1.600000*%
%TD*%
%TA.AperFunction,SMDPad,CuDef*%
%ADD14RoundRect,0.250000X-0.362500X-1.425000X0.362500X-1.425000X0.362500X1.425000X-0.362500X1.425000X0*%
%TD*%
%TA.AperFunction,ComponentPad*%
%ADD15R,1.905000X2.000000*%
%TD*%
%TA.AperFunction,ComponentPad*%
%ADD16O,1.905000X2.000000*%
%TD*%
%TA.AperFunction,SMDPad,CuDef*%
%ADD17RoundRect,0.250000X1.425000X-0.362500X1.425000X0.362500X-1.425000X0.362500X-1.425000X-0.362500X0*%
%TD*%
%TA.AperFunction,ComponentPad*%
%ADD18C,1.000000*%
%TD*%
%TA.AperFunction,ComponentPad*%
%ADD19R,1.050000X1.500000*%
%TD*%
%TA.AperFunction,ComponentPad*%
%ADD20O,1.050000X1.500000*%
%TD*%
%TA.AperFunction,SMDPad,CuDef*%
%ADD21RoundRect,0.150000X0.150000X0.200000X-0.150000X0.200000X-0.150000X-0.200000X0.150000X-0.200000X0*%
%TD*%
%TA.AperFunction,ComponentPad*%
%ADD22C,2.000000*%
%TD*%
%TA.AperFunction,ComponentPad*%
%ADD23R,1.600000X1.600000*%
%TD*%
%TA.AperFunction,ComponentPad*%
%ADD24C,1.600000*%
%TD*%
%TA.AperFunction,SMDPad,CuDef*%
%ADD25R,0.900000X1.700000*%
%TD*%
%TA.AperFunction,ComponentPad*%
%ADD26R,1.500000X1.500000*%
%TD*%
%TA.AperFunction,ComponentPad*%
%ADD27C,1.500000*%
%TD*%
%TA.AperFunction,ComponentPad*%
%ADD28R,2.000000X2.000000*%
%TD*%
%TA.AperFunction,ViaPad*%
%ADD29C,0.500380*%
%TD*%
%TA.AperFunction,Conductor*%
%ADD30C,0.020000*%
%TD*%
%TA.AperFunction,Conductor*%
%ADD31C,0.099060*%
%TD*%
%TA.AperFunction,Conductor*%
%ADD32C,0.020320*%
%TD*%
G04 APERTURE END LIST*
D10*
%TO.P,Fan,1,Pin_1*%
%TO.N,Net-(J2-Pin_1)*%
X112500000Y-102000000D03*
D11*
%TO.P,Fan,2,Pin_2*%
%TO.N,Net-(J2-Pin_2)*%
X117500000Y-102000000D03*
%TD*%
D12*
%TO.P,U1,1,PD3*%
%TO.N,unconnected-(U1-PD3-Pad1)*%
X100500000Y-85000000D03*
%TO.P,U1,2,PD4*%
%TO.N,unconnected-(U1-PD4-Pad2)*%
X100500000Y-85800000D03*
%TO.P,U1,3,GND*%
%TO.N,Net-(16Mhz1-Pad2)*%
X100500000Y-86600000D03*
%TO.P,U1,4,VCC*%
X100500000Y-87400000D03*
%TO.P,U1,5,GND*%
X100500000Y-88200000D03*
%TO.P,U1,6,VCC*%
X100500000Y-89000000D03*
%TO.P,U1,7,PB6/XTAL1*%
%TO.N,Net-(U1-PB6{slash}XTAL1)*%
X100500000Y-89800000D03*
%TO.P,U1,8,PB7/XTAL2*%
%TO.N,Net-(U1-PB7{slash}XTAL2)*%
X100500000Y-90600000D03*
D13*
%TO.P,U1,9,PD5*%
%TO.N,unconnected-(U1-PD5-Pad9)*%
X101950000Y-92050000D03*
%TO.P,U1,10,PD6*%
%TO.N,Net-(U1-PD6)*%
X102750000Y-92050000D03*
%TO.P,U1,11,PD7*%
%TO.N,unconnected-(U1-PD7-Pad11)*%
X103550000Y-92050000D03*
%TO.P,U1,12,PB0*%
%TO.N,Net-(U1-PB0)*%
X104350000Y-92050000D03*
%TO.P,U1,13,PB1*%
%TO.N,Net-(Q1-B)*%
X105150000Y-92050000D03*
%TO.P,U1,14,PB2*%
%TO.N,unconnected-(U1-PB2-Pad14)*%
X105950000Y-92050000D03*
%TO.P,U1,15,PB3*%
%TO.N,unconnected-(U1-PB3-Pad15)*%
X106750000Y-92050000D03*
%TO.P,U1,16,PB4*%
%TO.N,Net-(U1-PB4)*%
X107550000Y-92050000D03*
D12*
%TO.P,U1,17,PB5*%
%TO.N,Net-(U1-PB5)*%
X109000000Y-90600000D03*
%TO.P,U1,18,AVCC*%
%TO.N,unconnected-(U1-AVCC-Pad18)*%
X109000000Y-89800000D03*
%TO.P,U1,19,ADC6*%
%TO.N,unconnected-(U1-ADC6-Pad19)*%
X109000000Y-89000000D03*
%TO.P,U1,20,AREF*%
%TO.N,unconnected-(U1-AREF-Pad20)*%
X109000000Y-88200000D03*
%TO.P,U1,21,AGND*%
%TO.N,unconnected-(U1-AGND-Pad21)*%
X109000000Y-87400000D03*
%TO.P,U1,22,ADC7*%
%TO.N,unconnected-(U1-ADC7-Pad22)*%
X109000000Y-86600000D03*
%TO.P,U1,23,PC0*%
%TO.N,unconnected-(U1-PC0-Pad23)*%
X109000000Y-85800000D03*
%TO.P,U1,24,PC1*%
%TO.N,unconnected-(U1-PC1-Pad24)*%
X109000000Y-85000000D03*
D13*
%TO.P,U1,25,PC2*%
%TO.N,unconnected-(U1-PC2-Pad25)*%
X107550000Y-83550000D03*
%TO.P,U1,26,PC3*%
%TO.N,unconnected-(U1-PC3-Pad26)*%
X106750000Y-83550000D03*
%TO.P,U1,27,PC4*%
%TO.N,unconnected-(U1-PC4-Pad27)*%
X105950000Y-83550000D03*
%TO.P,U1,28,PC5*%
%TO.N,unconnected-(U1-PC5-Pad28)*%
X105150000Y-83550000D03*
%TO.P,U1,29,PC6/~{RESET}*%
%TO.N,Net-(U1-PC6{slash}~{RESET})*%
X104350000Y-83550000D03*
%TO.P,U1,30,PD0*%
%TO.N,unconnected-(U1-PD0-Pad30)*%
X103550000Y-83550000D03*
%TO.P,U1,31,PD1*%
%TO.N,unconnected-(U1-PD1-Pad31)*%
X102750000Y-83550000D03*
%TO.P,U1,32,PD2*%
%TO.N,unconnected-(U1-PD2-Pad32)*%
X101950000Y-83550000D03*
%TD*%
D14*
%TO.P,R4,1*%
%TO.N,Net-(U1-PB4)*%
X78272500Y-96285000D03*
%TO.P,R4,2*%
%TO.N,Net-(BZ1-+)*%
X84197500Y-96285000D03*
%TD*%
D15*
%TO.P,Q2,1,G*%
%TO.N,Net-(Q2-G)*%
X89960000Y-83445000D03*
D16*
%TO.P,Q2,2,D*%
%TO.N,Net-(J2-Pin_1)*%
X92500000Y-83445000D03*
%TO.P,Q2,3,S*%
%TO.N,Net-(16Mhz1-Pad2)*%
X95040000Y-83445000D03*
%TD*%
D17*
%TO.P,R5,1*%
%TO.N,Net-(R5-Pad1)*%
X88500000Y-94000000D03*
%TO.P,R5,2*%
%TO.N,Net-(U1-PD6)*%
X88500000Y-88075000D03*
%TD*%
D18*
%TO.P,16Mhz1,1,1*%
%TO.N,Net-(U1-PB6{slash}XTAL1)*%
X100785000Y-75985000D03*
%TO.P,16Mhz1,2,2*%
%TO.N,Net-(16Mhz1-Pad2)*%
X102685000Y-75985000D03*
%TD*%
D19*
%TO.P,Q1,1,C*%
%TO.N,Net-(D1-A)*%
X100500000Y-70000000D03*
D20*
%TO.P,Q1,2,B*%
%TO.N,Net-(Q1-B)*%
X101770000Y-70000000D03*
%TO.P,Q1,3,E*%
%TO.N,Net-(16Mhz1-Pad2)*%
X103040000Y-70000000D03*
%TD*%
D14*
%TO.P,R1,1*%
%TO.N,Net-(16Mhz1-Pad2)*%
X78272500Y-81615000D03*
%TO.P,R1,2*%
%TO.N,Net-(U1-PC6{slash}~{RESET})*%
X84197500Y-81615000D03*
%TD*%
D21*
%TO.P,D1,1,K*%
%TO.N,Net-(16Mhz1-Pad2)*%
X105100000Y-74735000D03*
%TO.P,D1,2,A*%
%TO.N,Net-(D1-A)*%
X106500000Y-74735000D03*
%TD*%
D22*
%TO.P,C1,1*%
%TO.N,Net-(16Mhz1-Pad2)*%
X79750000Y-102500000D03*
%TO.P,C1,2*%
%TO.N,Net-(U1-PB7{slash}XTAL2)*%
X87250000Y-102500000D03*
%TD*%
D14*
%TO.P,R3,1*%
%TO.N,Net-(Q2-G)*%
X78272500Y-91395000D03*
%TO.P,R3,2*%
%TO.N,Net-(U1-PB5)*%
X84197500Y-91395000D03*
%TD*%
D23*
%TO.P,BZ1,1,+*%
%TO.N,Net-(BZ1-+)*%
X109400000Y-72500000D03*
D24*
%TO.P,BZ1,2,-*%
%TO.N,Net-(16Mhz1-Pad2)*%
X117000000Y-72500000D03*
%TD*%
D14*
%TO.P,R2,1*%
%TO.N,Net-(U1-PB0)*%
X78340000Y-86770000D03*
%TO.P,R2,2*%
%TO.N,Net-(U2-DATA)*%
X84265000Y-86770000D03*
%TD*%
D25*
%TO.P,SW1,1,1*%
%TO.N,Net-(R5-Pad1)*%
X93100000Y-91000000D03*
%TO.P,SW1,2,2*%
%TO.N,Net-(16Mhz1-Pad2)*%
X96500000Y-91000000D03*
%TD*%
D10*
%TO.P,Light,1,Pin_1*%
%TO.N,Net-(J1-Pin_1)*%
X99000000Y-101500000D03*
D11*
%TO.P,Light,2,Pin_2*%
%TO.N,Net-(16Mhz1-Pad2)*%
X104000000Y-101500000D03*
%TD*%
D26*
%TO.P,U2,1,VDD*%
%TO.N,Net-(16Mhz1-Pad2)*%
X116500000Y-83960000D03*
D27*
%TO.P,U2,2,DATA*%
%TO.N,Net-(U2-DATA)*%
X116500000Y-86500000D03*
%TO.P,U2,3,NC*%
%TO.N,unconnected-(U2-NC-Pad3)*%
X116500000Y-89040000D03*
%TO.P,U2,4,GND*%
%TO.N,Net-(16Mhz1-Pad2)*%
X116500000Y-91580000D03*
%TD*%
D22*
%TO.P,K1,11*%
%TO.N,unconnected-(K1-Pad11)*%
X94500000Y-76120000D03*
D28*
%TO.P,K1,12*%
%TO.N,Net-(J1-Pin_1)*%
X76720000Y-76120000D03*
D22*
%TO.P,K1,14*%
X76720000Y-68500000D03*
%TO.P,K1,A1*%
%TO.N,Net-(16Mhz1-Pad2)*%
X81800000Y-76120000D03*
%TO.P,K1,A2*%
%TO.N,Net-(D1-A)*%
X81800000Y-68500000D03*
%TO.P,K1,PE*%
%TO.N,N/C*%
X94500000Y-68500000D03*
%TD*%
D29*
%TO.N,Net-(Q1-B)*%
X105150000Y-91078000D03*
%TO.N,Net-(U1-PB6{slash}XTAL1)*%
X102500000Y-89500000D03*
%TO.N,Net-(16Mhz1-Pad2)*%
X82030200Y-77463000D03*
X95657500Y-90665000D03*
X103496600Y-88115900D03*
X103465500Y-86823500D03*
%TO.N,Net-(U1-PB7{slash}XTAL2)*%
X90428800Y-93099900D03*
%TO.N,Net-(Q2-G)*%
X88975800Y-89577700D03*
%TO.N,Net-(BZ1-+)*%
X109400000Y-96285000D03*
%TO.N,Net-(J1-Pin_1)*%
X76720000Y-100825700D03*
%TO.N,Net-(J2-Pin_1)*%
X92500000Y-100027500D03*
%TD*%
D30*
%TO.N,Net-(Q1-B)*%
X105150000Y-91078000D02*
X105150000Y-92050000D01*
%TO.N,Net-(U1-PB6{slash}XTAL1)*%
X102200000Y-89800000D02*
X100500000Y-89800000D01*
X102500000Y-89500000D02*
X102200000Y-89800000D01*
%TO.N,Net-(16Mhz1-Pad2)*%
X95657500Y-90665000D02*
X95683300Y-90665000D01*
X110231000Y-73331000D02*
X108569000Y-73331000D01*
X115346100Y-84723100D02*
X116109200Y-83960000D01*
X101207000Y-77463000D02*
X82030200Y-77463000D01*
X99668300Y-89000000D02*
X99668300Y-87400000D01*
X81800000Y-78463600D02*
X103617900Y-78463600D01*
X100084200Y-86600000D02*
X100500000Y-86600000D01*
X109877400Y-84723100D02*
X115346100Y-84723100D01*
X100915900Y-88200000D02*
X101331700Y-88200000D01*
X102685000Y-75985000D02*
X101207000Y-77463000D01*
X95683300Y-90665000D02*
X96018300Y-91000000D01*
X100500000Y-89000000D02*
X99668300Y-89000000D01*
X103617900Y-78463600D02*
X109877400Y-84723100D01*
X81423900Y-78463600D02*
X81800000Y-78463600D01*
X81800000Y-78463600D02*
X81800000Y-76120000D01*
X99179200Y-86600000D02*
X96024200Y-83445000D01*
X108569000Y-73331000D02*
X108569000Y-72500000D01*
X110231000Y-72500000D02*
X110231000Y-73331000D01*
X103196800Y-87400000D02*
X100500000Y-87400000D01*
X103496600Y-88115900D02*
X101415800Y-88115900D01*
X107565000Y-72500000D02*
X106830900Y-73234100D01*
X106830900Y-73234100D02*
X103596700Y-70000000D01*
X99668300Y-86600000D02*
X99179200Y-86600000D01*
X116500000Y-91580000D02*
X114320000Y-89400000D01*
X109782600Y-85400000D02*
X105196800Y-85400000D01*
X95040000Y-83445000D02*
X96024200Y-83445000D01*
X96500000Y-91000000D02*
X96018300Y-91000000D01*
X104780700Y-89400000D02*
X103496600Y-88115900D01*
X101555200Y-86823500D02*
X101331700Y-86600000D01*
X106830900Y-73234100D02*
X105330000Y-74735000D01*
X117000000Y-72500000D02*
X110231000Y-72500000D01*
X114320000Y-89400000D02*
X104780700Y-89400000D01*
X100500000Y-87400000D02*
X99668300Y-87400000D01*
X100915900Y-88200000D02*
X100500000Y-88200000D01*
X108569000Y-72500000D02*
X107565000Y-72500000D01*
X105196800Y-85400000D02*
X103196800Y-87400000D01*
X103040000Y-70000000D02*
X103596700Y-70000000D01*
X100084200Y-86600000D02*
X99668300Y-86600000D01*
X109877400Y-84723100D02*
X109877400Y-85305200D01*
X116500000Y-83960000D02*
X116109200Y-83960000D01*
X78272500Y-81615000D02*
X81423900Y-78463600D01*
X109877400Y-85305200D02*
X109782600Y-85400000D01*
X103465500Y-86823500D02*
X101555200Y-86823500D01*
X100500000Y-86600000D02*
X101331700Y-86600000D01*
X101415800Y-88115900D02*
X101331700Y-88200000D01*
%TO.N,Net-(U1-PB7{slash}XTAL2)*%
X100500000Y-90600000D02*
X99668300Y-90600000D01*
X97168400Y-93099900D02*
X99668300Y-90600000D01*
X90428800Y-93099900D02*
X97168400Y-93099900D01*
%TO.N,Net-(D1-A)*%
X106338600Y-75126400D02*
X104844700Y-75126400D01*
X106730000Y-74735000D02*
X106338600Y-75126400D01*
X84076355Y-70000000D02*
X100500000Y-70000000D01*
X100500000Y-70000000D02*
X100500000Y-70781700D01*
X81800000Y-68500000D02*
X82576355Y-68500000D01*
X104844700Y-75126400D02*
X100500000Y-70781700D01*
X82576355Y-68500000D02*
X84076355Y-70000000D01*
%TO.N,Net-(Q2-G)*%
X78272500Y-91395000D02*
X80089800Y-89577700D01*
X80089800Y-89577700D02*
X88975800Y-89577700D01*
%TO.N,Net-(U1-PC6{slash}~{RESET})*%
X103246700Y-81615000D02*
X104350000Y-82718300D01*
X84197500Y-81615000D02*
X103246700Y-81615000D01*
X104350000Y-83550000D02*
X104350000Y-82718300D01*
%TO.N,Net-(U2-DATA)*%
X102000001Y-89089000D02*
X103089000Y-89089000D01*
X103089000Y-89089000D02*
X103494000Y-89494000D01*
X117281000Y-91903501D02*
X117281000Y-87281000D01*
X117281000Y-87281000D02*
X116500000Y-86500000D01*
D31*
X84500000Y-86505000D02*
X93505000Y-86505000D01*
D30*
X116823501Y-92361000D02*
X117281000Y-91903501D01*
X101759243Y-89329758D02*
X102000001Y-89089000D01*
X113309499Y-89494000D02*
X116176499Y-92361000D01*
X116176499Y-92361000D02*
X116823501Y-92361000D01*
X103494000Y-89494000D02*
X113309499Y-89494000D01*
X96329758Y-89329758D02*
X101759243Y-89329758D01*
X93505000Y-86505000D02*
X96329758Y-89329758D01*
%TO.N,Net-(U1-PB5)*%
X85474200Y-90118300D02*
X96963200Y-90118300D01*
X105578600Y-92756800D02*
X105578600Y-91289000D01*
X102351500Y-92781900D02*
X102451300Y-92881700D01*
X106267600Y-90600000D02*
X109000000Y-90600000D01*
X97003900Y-90159000D02*
X101225100Y-90159000D01*
X84197500Y-91395000D02*
X85474200Y-90118300D01*
X105453700Y-92881700D02*
X105578600Y-92756800D01*
X105578600Y-91289000D02*
X106267600Y-90600000D01*
X101225100Y-90159000D02*
X102351500Y-91285400D01*
X102451300Y-92881700D02*
X105453700Y-92881700D01*
X96963200Y-90118300D02*
X97003900Y-90159000D01*
X102351500Y-91285400D02*
X102351500Y-92781900D01*
%TO.N,Net-(U1-PB4)*%
X86640400Y-94685600D02*
X105746100Y-94685600D01*
X107550000Y-92050000D02*
X107550000Y-92881700D01*
X78272500Y-96285000D02*
X79980200Y-94577300D01*
X86532100Y-94577300D02*
X86640400Y-94685600D01*
X79980200Y-94577300D02*
X86532100Y-94577300D01*
X105746100Y-94685600D02*
X107550000Y-92881700D01*
%TO.N,Net-(R5-Pad1)*%
X88500000Y-94000000D02*
X91500000Y-91000000D01*
X91500000Y-91000000D02*
X93100000Y-91000000D01*
%TO.N,Net-(U1-PD6)*%
X101648300Y-90116600D02*
X97020400Y-90116600D01*
D32*
X94978800Y-88075000D02*
X88500000Y-88075000D01*
D30*
X102750000Y-91218300D02*
X101648300Y-90116600D01*
X102750000Y-92050000D02*
X102750000Y-91218300D01*
X97020400Y-90116600D02*
X94978800Y-88075000D01*
%TO.N,Net-(BZ1-+)*%
X84197500Y-96285000D02*
X109400000Y-96285000D01*
%TO.N,Net-(J1-Pin_1)*%
X99000000Y-101500000D02*
X98325700Y-100825700D01*
X98325700Y-100825700D02*
X76720000Y-100825700D01*
%TO.N,Net-(J2-Pin_1)*%
X110527500Y-100027500D02*
X92500000Y-100027500D01*
X112500000Y-102000000D02*
X110527500Y-100027500D01*
%TO.N,Net-(U1-PB0)*%
X86794000Y-94485820D02*
X86951680Y-94643500D01*
X106256000Y-92881000D02*
X106256000Y-91219000D01*
X77629000Y-87451000D02*
X77629000Y-92943320D01*
X109831000Y-90294000D02*
X105352758Y-90294000D01*
X79171500Y-94485820D02*
X86794000Y-94485820D01*
X105352758Y-90294000D02*
X104350000Y-91296758D01*
X106569000Y-90906000D02*
X109831000Y-90906000D01*
X77629000Y-92943320D02*
X79171500Y-94485820D01*
X78575000Y-86505000D02*
X77629000Y-87451000D01*
X109831000Y-90906000D02*
X109831000Y-90294000D01*
X104493500Y-94643500D02*
X106256000Y-92881000D01*
X106256000Y-91219000D02*
X106569000Y-90906000D01*
X86951680Y-94643500D02*
X104493500Y-94643500D01*
X104350000Y-91296758D02*
X104350000Y-92050000D01*
%TD*%
M02*
