%TF.GenerationSoftware,KiCad,Pcbnew,9.0.0*%
%TF.CreationDate,2025-03-27T13:05:49+05:30*%
%TF.ProjectId,incubator,696e6375-6261-4746-9f72-2e6b69636164,rev?*%
%TF.SameCoordinates,Original*%
%TF.FileFunction,Copper,L2,Bot*%
%TF.FilePolarity,Positive*%
%FSLAX46Y46*%
G04 Gerber Fmt 4.6, Leading zero omitted, Abs format (unit mm)*
G04 Created by KiCad (PCBNEW 9.0.0) date 2025-03-27 13:05:49*
%MOMM*%
%LPD*%
G01*
G04 APERTURE LIST*
G04 Aperture macros list*
%AMRoundRect*
0 Rectangle with rounded corners*
0 $1 Rounding radius*
0 $2 $3 $4 $5 $6 $7 $8 $9 X,Y pos of 4 corners*
0 Add a 4 corners polygon primitive as box body*
4,1,4,$2,$3,$4,$5,$6,$7,$8,$9,$2,$3,0*
0 Add four circle primitives for the rounded corners*
1,1,$1+$1,$2,$3*
1,1,$1+$1,$4,$5*
1,1,$1+$1,$6,$7*
1,1,$1+$1,$8,$9*
0 Add four rect primitives between the rounded corners*
20,1,$1+$1,$2,$3,$4,$5,0*
20,1,$1+$1,$4,$5,$6,$7,0*
20,1,$1+$1,$6,$7,$8,$9,0*
20,1,$1+$1,$8,$9,$2,$3,0*%
G04 Aperture macros list end*
%TA.AperFunction,ComponentPad*%
%ADD10RoundRect,0.250001X-1.149999X-1.149999X1.149999X-1.149999X1.149999X1.149999X-1.149999X1.149999X0*%
%TD*%
%TA.AperFunction,ComponentPad*%
%ADD11C,2.800000*%
%TD*%
%TA.AperFunction,ComponentPad*%
%ADD12R,1.905000X2.000000*%
%TD*%
%TA.AperFunction,ComponentPad*%
%ADD13O,1.905000X2.000000*%
%TD*%
%TA.AperFunction,ComponentPad*%
%ADD14C,1.000000*%
%TD*%
%TA.AperFunction,ComponentPad*%
%ADD15R,1.050000X1.500000*%
%TD*%
%TA.AperFunction,ComponentPad*%
%ADD16O,1.050000X1.500000*%
%TD*%
%TA.AperFunction,ComponentPad*%
%ADD17C,2.000000*%
%TD*%
%TA.AperFunction,ComponentPad*%
%ADD18R,1.600000X1.600000*%
%TD*%
%TA.AperFunction,ComponentPad*%
%ADD19C,1.600000*%
%TD*%
%TA.AperFunction,ComponentPad*%
%ADD20R,1.500000X1.500000*%
%TD*%
%TA.AperFunction,ComponentPad*%
%ADD21C,1.500000*%
%TD*%
%TA.AperFunction,ComponentPad*%
%ADD22R,2.000000X2.000000*%
%TD*%
%TA.AperFunction,ViaPad*%
%ADD23C,0.500380*%
%TD*%
%TA.AperFunction,Conductor*%
%ADD24C,0.020000*%
%TD*%
%TA.AperFunction,Conductor*%
%ADD25C,0.099060*%
%TD*%
G04 APERTURE END LIST*
D10*
%TO.P,Fan,1,Pin_1*%
%TO.N,Net-(J2-Pin_1)*%
X112500000Y-102000000D03*
D11*
%TO.P,Fan,2,Pin_2*%
%TO.N,Net-(J2-Pin_2)*%
X117500000Y-102000000D03*
%TD*%
D12*
%TO.P,Q2,1,G*%
%TO.N,Net-(Q2-G)*%
X89960000Y-83445000D03*
D13*
%TO.P,Q2,2,D*%
%TO.N,Net-(J2-Pin_1)*%
X92500000Y-83445000D03*
%TO.P,Q2,3,S*%
%TO.N,Net-(16Mhz1-Pad2)*%
X95040000Y-83445000D03*
%TD*%
D14*
%TO.P,16Mhz1,1,1*%
%TO.N,Net-(U1-PB6{slash}XTAL1)*%
X100785000Y-75985000D03*
%TO.P,16Mhz1,2,2*%
%TO.N,Net-(16Mhz1-Pad2)*%
X102685000Y-75985000D03*
%TD*%
D15*
%TO.P,Q1,1,C*%
%TO.N,Net-(D1-A)*%
X100500000Y-70000000D03*
D16*
%TO.P,Q1,2,B*%
%TO.N,Net-(Q1-B)*%
X101770000Y-70000000D03*
%TO.P,Q1,3,E*%
%TO.N,Net-(16Mhz1-Pad2)*%
X103040000Y-70000000D03*
%TD*%
D17*
%TO.P,C1,1*%
%TO.N,Net-(16Mhz1-Pad2)*%
X79750000Y-102500000D03*
%TO.P,C1,2*%
%TO.N,Net-(U1-PB7{slash}XTAL2)*%
X87250000Y-102500000D03*
%TD*%
D18*
%TO.P,BZ1,1,+*%
%TO.N,Net-(BZ1-+)*%
X109400000Y-72500000D03*
D19*
%TO.P,BZ1,2,-*%
%TO.N,Net-(16Mhz1-Pad2)*%
X117000000Y-72500000D03*
%TD*%
D10*
%TO.P,Light,1,Pin_1*%
%TO.N,Net-(J1-Pin_1)*%
X99000000Y-101500000D03*
D11*
%TO.P,Light,2,Pin_2*%
%TO.N,Net-(16Mhz1-Pad2)*%
X104000000Y-101500000D03*
%TD*%
D20*
%TO.P,U2,1,VDD*%
%TO.N,Net-(16Mhz1-Pad2)*%
X116500000Y-83960000D03*
D21*
%TO.P,U2,2,DATA*%
%TO.N,Net-(U2-DATA)*%
X116500000Y-86500000D03*
%TO.P,U2,3,NC*%
%TO.N,unconnected-(U2-NC-Pad3)*%
X116500000Y-89040000D03*
%TO.P,U2,4,GND*%
%TO.N,Net-(16Mhz1-Pad2)*%
X116500000Y-91580000D03*
%TD*%
D17*
%TO.P,K1,11*%
%TO.N,unconnected-(K1-Pad11)*%
X94500000Y-76120000D03*
D22*
%TO.P,K1,12*%
%TO.N,Net-(J1-Pin_1)*%
X76720000Y-76120000D03*
D17*
%TO.P,K1,14*%
X76720000Y-68500000D03*
%TO.P,K1,A1*%
%TO.N,Net-(16Mhz1-Pad2)*%
X81800000Y-76120000D03*
%TO.P,K1,A2*%
%TO.N,Net-(D1-A)*%
X81800000Y-68500000D03*
%TO.P,K1,PE*%
%TO.N,N/C*%
X94500000Y-68500000D03*
%TD*%
D23*
%TO.N,Net-(Q1-B)*%
X105150000Y-91078000D03*
%TO.N,Net-(U1-PB6{slash}XTAL1)*%
X102500000Y-89500000D03*
%TO.N,Net-(16Mhz1-Pad2)*%
X82030200Y-77463000D03*
X95657500Y-90665000D03*
X103496600Y-88115900D03*
X103465500Y-86823500D03*
%TO.N,Net-(U1-PB7{slash}XTAL2)*%
X90428800Y-93099900D03*
%TO.N,Net-(Q2-G)*%
X88975800Y-89577700D03*
%TO.N,Net-(BZ1-+)*%
X109400000Y-96285000D03*
%TO.N,Net-(J1-Pin_1)*%
X76720000Y-100825700D03*
%TO.N,Net-(J2-Pin_1)*%
X92500000Y-100027500D03*
%TD*%
D24*
%TO.N,Net-(Q1-B)*%
X102326700Y-70556700D02*
X105150000Y-73380000D01*
X101770000Y-70000000D02*
X102326700Y-70000000D01*
X102326700Y-70000000D02*
X102326700Y-70556700D01*
X105150000Y-73380000D02*
X105150000Y-91078000D01*
%TO.N,Net-(U1-PB6{slash}XTAL1)*%
X102200000Y-89800000D02*
X101472000Y-89800000D01*
X101472000Y-89800000D02*
X100785000Y-89113000D01*
X100785000Y-89113000D02*
X100785000Y-75985000D01*
X102500000Y-89500000D02*
X102200000Y-89800000D01*
%TO.N,Net-(16Mhz1-Pad2)*%
X95657500Y-85094200D02*
X95657500Y-90665000D01*
X95040000Y-83445000D02*
X95040000Y-84476700D01*
X117000000Y-72500000D02*
X117319900Y-72819900D01*
X117319900Y-90760100D02*
X116500000Y-91580000D01*
X103496600Y-100996600D02*
X103496600Y-88115900D01*
X95040000Y-84476700D02*
X95657500Y-85094200D01*
X104000000Y-101500000D02*
X103496600Y-100996600D01*
X82030200Y-77463000D02*
X79750000Y-79743200D01*
X79750000Y-79743200D02*
X79750000Y-102500000D01*
X117319900Y-72819900D02*
X117319900Y-90760100D01*
X103465500Y-88084800D02*
X103465500Y-86823500D01*
X103496600Y-88115900D02*
X103465500Y-88084800D01*
%TO.N,Net-(U1-PB7{slash}XTAL2)*%
X87250000Y-102500000D02*
X90428800Y-99321200D01*
X90428800Y-99321200D02*
X90428800Y-93099900D01*
%TO.N,Net-(Q2-G)*%
X89960000Y-88593500D02*
X88975800Y-89577700D01*
D25*
X89960000Y-83445000D02*
X89960000Y-88593500D01*
D24*
%TO.N,Net-(BZ1-+)*%
X109400000Y-72500000D02*
X109400000Y-96285000D01*
%TO.N,Net-(J1-Pin_1)*%
X76720000Y-68500000D02*
X76720000Y-76120000D01*
X76720000Y-76120000D02*
X76720000Y-100825700D01*
%TO.N,Net-(J2-Pin_1)*%
X92500000Y-83445000D02*
X92500000Y-100027500D01*
%TD*%
M02*
