%TF.GenerationSoftware,KiCad,Pcbnew,9.0.0*%
%TF.CreationDate,2025-03-27T13:05:49+05:30*%
%TF.ProjectId,incubator,696e6375-6261-4746-9f72-2e6b69636164,rev?*%
%TF.SameCoordinates,Original*%
%TF.FileFunction,Paste,Top*%
%TF.FilePolarity,Positive*%
%FSLAX46Y46*%
G04 Gerber Fmt 4.6, Leading zero omitted, Abs format (unit mm)*
G04 Created by KiCad (PCBNEW 9.0.0) date 2025-03-27 13:05:49*
%MOMM*%
%LPD*%
G01*
G04 APERTURE LIST*
G04 Aperture macros list*
%AMRoundRect*
0 Rectangle with rounded corners*
0 $1 Rounding radius*
0 $2 $3 $4 $5 $6 $7 $8 $9 X,Y pos of 4 corners*
0 Add a 4 corners polygon primitive as box body*
4,1,4,$2,$3,$4,$5,$6,$7,$8,$9,$2,$3,0*
0 Add four circle primitives for the rounded corners*
1,1,$1+$1,$2,$3*
1,1,$1+$1,$4,$5*
1,1,$1+$1,$6,$7*
1,1,$1+$1,$8,$9*
0 Add four rect primitives between the rounded corners*
20,1,$1+$1,$2,$3,$4,$5,0*
20,1,$1+$1,$4,$5,$6,$7,0*
20,1,$1+$1,$6,$7,$8,$9,0*
20,1,$1+$1,$8,$9,$2,$3,0*%
G04 Aperture macros list end*
%ADD10R,1.600000X0.550000*%
%ADD11R,0.550000X1.600000*%
%ADD12RoundRect,0.250000X-0.362500X-1.425000X0.362500X-1.425000X0.362500X1.425000X-0.362500X1.425000X0*%
%ADD13RoundRect,0.250000X1.425000X-0.362500X1.425000X0.362500X-1.425000X0.362500X-1.425000X-0.362500X0*%
%ADD14RoundRect,0.150000X0.150000X0.200000X-0.150000X0.200000X-0.150000X-0.200000X0.150000X-0.200000X0*%
%ADD15R,0.900000X1.700000*%
G04 APERTURE END LIST*
D10*
%TO.C,U1*%
X100500000Y-85000000D03*
X100500000Y-85800000D03*
X100500000Y-86600000D03*
X100500000Y-87400000D03*
X100500000Y-88200000D03*
X100500000Y-89000000D03*
X100500000Y-89800000D03*
X100500000Y-90600000D03*
D11*
X101950000Y-92050000D03*
X102750000Y-92050000D03*
X103550000Y-92050000D03*
X104350000Y-92050000D03*
X105150000Y-92050000D03*
X105950000Y-92050000D03*
X106750000Y-92050000D03*
X107550000Y-92050000D03*
D10*
X109000000Y-90600000D03*
X109000000Y-89800000D03*
X109000000Y-89000000D03*
X109000000Y-88200000D03*
X109000000Y-87400000D03*
X109000000Y-86600000D03*
X109000000Y-85800000D03*
X109000000Y-85000000D03*
D11*
X107550000Y-83550000D03*
X106750000Y-83550000D03*
X105950000Y-83550000D03*
X105150000Y-83550000D03*
X104350000Y-83550000D03*
X103550000Y-83550000D03*
X102750000Y-83550000D03*
X101950000Y-83550000D03*
%TD*%
D12*
%TO.C,R4*%
X78272500Y-96285000D03*
X84197500Y-96285000D03*
%TD*%
D13*
%TO.C,R5*%
X88500000Y-94000000D03*
X88500000Y-88075000D03*
%TD*%
D12*
%TO.C,R1*%
X78272500Y-81615000D03*
X84197500Y-81615000D03*
%TD*%
D14*
%TO.C,D1*%
X105100000Y-74735000D03*
X106500000Y-74735000D03*
%TD*%
D12*
%TO.C,R3*%
X78272500Y-91395000D03*
X84197500Y-91395000D03*
%TD*%
%TO.C,R2*%
X78340000Y-86770000D03*
X84265000Y-86770000D03*
%TD*%
D15*
%TO.C,SW1*%
X93100000Y-91000000D03*
X96500000Y-91000000D03*
%TD*%
M02*
